<svg width="43" height="26" viewBox="0 0 43 26" fill="none" xmlns="http://www.w3.org/2000/svg">
<path d="M11.6875 12.75C14.6167 12.75 17 10.3667 17 7.4375C17 4.50832 14.6167 2.125 11.6875 2.125C8.75832 2.125 6.375 4.50832 6.375 7.4375C6.375 10.3667 8.75832 12.75 11.6875 12.75ZM35.0625 4.25H20.1875C19.6005 4.25 19.125 4.72547 19.125 5.3125V14.875H4.25V1.0625C4.25 0.475469 3.77453 0 3.1875 0H1.0625C0.475469 0 0 0.475469 0 1.0625V24.4375C0 25.0245 0.475469 25.5 1.0625 25.5H3.1875C3.77453 25.5 4.25 25.0245 4.25 24.4375V21.25H38.25V24.4375C38.25 25.0245 38.7255 25.5 39.3125 25.5H41.4375C42.0245 25.5 42.5 25.0245 42.5 24.4375V11.6875C42.5 7.57961 39.1704 4.25 35.0625 4.25Z" fill="black"/>
</svg>
