<svg width="41" height="31" viewBox="0 0 41 31" fill="none" xmlns="http://www.w3.org/2000/svg">
<path d="M40.038 9.09375H35.2437L33.9112 5.7625C32.5419 2.33756 29.2739 0.125 25.5847 0.125H15.4148C11.7264 0.125 8.45756 2.33756 7.08742 5.7625L5.75492 9.09375H0.961447C0.336037 9.09375 -0.122811 9.68152 0.0293377 10.2877L0.509806 12.2096C0.61631 12.6372 1.00069 12.9375 1.44192 12.9375H3.04908C1.97363 13.8768 1.28096 15.2421 1.28096 16.7812V20.625C1.28096 21.9159 1.77424 23.081 2.56221 23.9827V28.3125C2.56221 29.7275 3.70973 30.875 5.12471 30.875H7.68721C9.10219 30.875 10.2497 29.7275 10.2497 28.3125V25.75H30.7497V28.3125C30.7497 29.7275 31.8972 30.875 33.3122 30.875H35.8747C37.2897 30.875 38.4372 29.7275 38.4372 28.3125V23.9827C39.2252 23.0818 39.7185 21.9167 39.7185 20.625V16.7812C39.7185 15.2421 39.0258 13.8768 37.9511 12.9375H39.5583C39.9995 12.9375 40.3839 12.6372 40.4904 12.2096L40.9709 10.2877C41.1222 9.68152 40.6634 9.09375 40.038 9.09375ZM11.8457 7.66596C12.4294 6.20693 13.8428 5.25 15.4148 5.25H25.5847C27.1566 5.25 28.57 6.20693 29.1538 7.66596L30.7497 11.6562H10.2497L11.8457 7.66596ZM7.68721 20.609C6.14971 20.609 5.12471 19.5872 5.12471 18.0545C5.12471 16.5218 6.14971 15.5 7.68721 15.5C9.22471 15.5 11.531 17.799 11.531 19.3317C11.531 20.8644 9.22471 20.609 7.68721 20.609ZM33.3122 20.609C31.7747 20.609 29.4685 20.8644 29.4685 19.3317C29.4685 17.799 31.7747 15.5 33.3122 15.5C34.8497 15.5 35.8747 16.5218 35.8747 18.0545C35.8747 19.5872 34.8497 20.609 33.3122 20.609Z" fill="black"/>
</svg>
