<svg width="48" height="38" viewBox="0 0 48 38" fill="none" xmlns="http://www.w3.org/2000/svg">
<path d="M22.8777 10.1618L7.83358 22.6182V36.0623C7.83358 36.4104 7.97113 36.7442 8.21597 36.9904C8.46081 37.2365 8.79288 37.3748 9.13914 37.3748L18.2829 37.351C18.628 37.3493 18.9584 37.2102 19.2019 36.9643C19.4453 36.7183 19.582 36.3855 19.5819 36.0385V28.1873C19.5819 27.8392 19.7195 27.5054 19.9643 27.2592C20.2092 27.0131 20.5412 26.8748 20.8875 26.8748H26.1097C26.456 26.8748 26.7881 27.0131 27.0329 27.2592C27.2777 27.5054 27.4153 27.8392 27.4153 28.1873V36.0328C27.4147 36.2055 27.4481 36.3766 27.5135 36.5363C27.5789 36.696 27.6749 36.8412 27.7962 36.9635C27.9175 37.0858 28.0616 37.1829 28.2203 37.2491C28.3789 37.3153 28.549 37.3494 28.7208 37.3494L37.8614 37.3748C38.2076 37.3748 38.5397 37.2365 38.7845 36.9904C39.0294 36.7442 39.1669 36.4104 39.1669 36.0623V22.6092L24.1261 10.1618C23.9493 10.0185 23.729 9.94033 23.5019 9.94033C23.2748 9.94033 23.0545 10.0185 22.8777 10.1618V10.1618ZM46.6412 18.6282L39.8197 12.9754V1.61328C39.8197 1.35221 39.7165 1.10183 39.5329 0.917223C39.3493 0.732617 39.1002 0.628906 38.8405 0.628906H34.2711C34.0114 0.628906 33.7623 0.732617 33.5787 0.917223C33.3951 1.10183 33.2919 1.35221 33.2919 1.61328V7.56957L25.9865 1.52715C25.2854 0.94717 24.4057 0.630066 23.4978 0.630066C22.5899 0.630066 21.7102 0.94717 21.0091 1.52715L0.354378 18.6282C0.255228 18.7106 0.173196 18.8118 0.112971 18.9261C0.0527453 19.0403 0.0155067 19.1654 0.00338249 19.2942C-0.00874172 19.4229 0.00448609 19.5528 0.0423101 19.6764C0.0801342 19.8 0.141813 19.9149 0.223823 20.0145L2.30455 22.5575C2.38634 22.6575 2.48694 22.7403 2.60058 22.8011C2.71423 22.8619 2.8387 22.8997 2.96687 22.9121C3.09503 22.9245 3.22438 22.9114 3.3475 22.8735C3.47061 22.8356 3.58509 22.7736 3.68436 22.6912L22.8777 6.79848C23.0545 6.65519 23.2748 6.57705 23.5019 6.57705C23.729 6.57705 23.9493 6.65519 24.1261 6.79848L43.3202 22.6912C43.4193 22.7737 43.5336 22.8357 43.6566 22.8737C43.7795 22.9117 43.9087 22.925 44.0368 22.9128C44.1648 22.9006 44.2892 22.8632 44.4029 22.8027C44.5166 22.7421 44.6173 22.6596 44.6992 22.56L46.7799 20.017C46.8619 19.9168 46.9233 19.8013 46.9607 19.6772C46.998 19.553 47.0106 19.4227 46.9977 19.2936C46.9849 19.1646 46.9467 19.0393 46.8855 18.9251C46.8244 18.8109 46.7413 18.71 46.6412 18.6282V18.6282Z" fill="black"/>
</svg>
