<svg width="50" height="36" viewBox="0 0 50 36" fill="none" xmlns="http://www.w3.org/2000/svg">
<path d="M48.75 30.5H47.5C45.4656 30.5 43.9219 29.8422 43.118 29.1016C42.4227 28.4602 41.582 28 40.6359 28H39.3625C38.4164 28 37.5758 28.4602 36.8805 29.1016C36.0781 29.8422 34.5344 30.5 32.5 30.5C30.4656 30.5 28.9219 29.8422 28.118 29.1016C27.4227 28.4602 26.582 28 25.6359 28H24.3625C23.4164 28 22.5758 28.4602 21.8805 29.1016C21.0781 29.8422 19.5344 30.5 17.5 30.5C15.4656 30.5 13.9219 29.8422 13.118 29.1016C12.4227 28.4602 11.582 28 10.6359 28H9.3625C8.41641 28 7.57578 28.4602 6.88047 29.1016C6.07812 29.8422 4.53438 30.5 2.5 30.5H1.25C0.559375 30.5 0 31.0594 0 31.75V34.25C0 34.9406 0.559375 35.5 1.25 35.5H2.5C5.51719 35.5 8.18125 34.5477 10 33.0125C11.8188 34.5484 14.4828 35.5 17.5 35.5C20.5172 35.5 23.1812 34.5477 25 33.0125C26.8188 34.5484 29.4828 35.5 32.5 35.5C35.5172 35.5 38.1813 34.5477 40 33.0125C41.8187 34.5484 44.4828 35.5 47.5 35.5H48.75C49.4406 35.5 50 34.9406 50 34.25V31.75C50 31.0594 49.4406 30.5 48.75 30.5ZM17.5 28V20.5H32.5V28C33.9938 28 34.9109 27.5187 35.1867 27.2641C35.9031 26.6031 36.6867 26.1438 37.5 25.8523V8C37.5 6.62187 38.6219 5.5 40 5.5C41.3781 5.5 42.5 6.62187 42.5 8V9.25C42.5 9.94063 43.0594 10.5 43.75 10.5H46.25C46.9406 10.5 47.5 9.94063 47.5 9.25V8C47.5 3.86406 44.1359 0.5 40 0.5C35.8641 0.5 32.5 3.86406 32.5 8V15.5H17.5V8C17.5 6.62187 18.6219 5.5 20 5.5C21.3781 5.5 22.5 6.62187 22.5 8V9.25C22.5 9.94063 23.0594 10.5 23.75 10.5H26.25C26.9406 10.5 27.5 9.94063 27.5 9.25V8C27.5 3.86406 24.1359 0.5 20 0.5C15.8641 0.5 12.5 3.86406 12.5 8V25.8516C13.3133 26.143 14.0969 26.6031 14.8133 27.2633C15.0891 27.5188 16.0063 28 17.5 28Z" fill="black"/>
</svg>
