<svg width="49" height="48" viewBox="0 0 49 48" fill="none" xmlns="http://www.w3.org/2000/svg">
<path fill-rule="evenodd" clip-rule="evenodd" d="M16.3333 18.0008C16.3333 15.879 17.1937 13.844 18.7253 12.3437C20.2568 10.8433 22.3341 10.0004 24.5 10.0004C26.6659 10.0004 28.7432 10.8433 30.2747 12.3437C31.8063 13.844 32.6667 15.879 32.6667 18.0008C32.6667 20.1227 31.8063 22.1576 30.2747 23.6579C28.7432 25.1583 26.6659 26.0012 24.5 26.0012C22.3341 26.0012 20.2568 25.1583 18.7253 23.6579C17.1937 22.1576 16.3333 20.1227 16.3333 18.0008V18.0008ZM32.3073 27.2473C34.25 25.6729 35.6495 23.5497 36.3148 21.1673C36.9801 18.7849 36.8788 16.2595 36.0248 13.9356C35.1708 11.6117 33.6056 9.60254 31.5428 8.18233C29.4801 6.76211 27.0202 6 24.499 6C21.9777 6 19.5179 6.76211 17.4551 8.18233C15.3924 9.60254 13.8272 11.6117 12.9732 13.9356C12.1191 16.2595 12.0179 18.7849 12.6832 21.1673C13.3485 23.5497 14.748 25.6729 16.6906 27.2473C10.1798 29.4934 6.125 34.4956 6.125 40.0019C6.125 40.5323 6.3401 41.0411 6.72299 41.4162C7.10588 41.7913 7.62518 42.002 8.16667 42.002C8.70815 42.002 9.22746 41.7913 9.61034 41.4162C9.99323 41.0411 10.2083 40.5323 10.2083 40.0019C10.2083 35.4617 15.0165 30.0014 24.5 30.0014C33.9835 30.0014 38.7917 35.4617 38.7917 40.0019C38.7917 40.5323 39.0068 41.0411 39.3897 41.4162C39.7725 41.7913 40.2919 42.002 40.8333 42.002C41.3748 42.002 41.8941 41.7913 42.277 41.4162C42.6599 41.0411 42.875 40.5323 42.875 40.0019C42.875 34.4956 38.8243 29.4934 32.3073 27.2473Z" fill="black"/>
</svg>
