<svg width="44" height="32" viewBox="0 0 44 32" fill="none" xmlns="http://www.w3.org/2000/svg">
<path d="M43.65 8.89C31.4696 -2.63211 12.5255 -2.62789 0.349879 8.89C-0.107996 9.32312 -0.116934 10.0565 0.325816 10.5058L2.67982 12.8943C3.10194 13.3232 3.78119 13.3323 4.21982 12.921C14.2518 3.52164 29.7467 3.51953 39.7808 12.921C40.2194 13.3323 40.8986 13.3225 41.3208 12.8943L43.6748 10.5058C44.1168 10.0565 44.1079 9.32312 43.65 8.89ZM21.9999 22.75C19.5696 22.75 17.5999 24.7645 17.5999 27.25C17.5999 29.7355 19.5696 31.75 21.9999 31.75C24.4303 31.75 26.3999 29.7355 26.3999 27.25C26.3999 24.7645 24.4303 22.75 21.9999 22.75ZM35.9335 16.8726C28.0094 9.70563 15.9816 9.71336 8.06638 16.8726C7.592 17.3015 7.57688 18.0461 8.02719 18.5003L10.3949 20.8902C10.8074 21.3065 11.4716 21.3346 11.9109 20.9465C17.6824 15.8439 26.3305 15.8552 32.0883 20.9465C32.5276 21.3346 33.1917 21.3072 33.6043 20.8902L35.972 18.5003C36.423 18.0461 36.4072 17.3008 35.9335 16.8726Z" fill="black"/>
</svg>
